<?xml version="1.0" encoding="utf-8"?>
<svg viewBox="0 0 500 500" xmlns="http://www.w3.org/2000/svg">
  <g transform="matrix(0.877685, 0.479241, -0.479241, 0.877685, -192.350784, -288.883057)">
    <ellipse style="stroke: rgba(0, 0, 0, 0);" cx="208.831" cy="163.315" rx="30.542" ry="42.113" transform="matrix(-0.985732, -0.168325, -0.149963, 0.988867, 915.533413, 62.442246)"/>
    <ellipse style="stroke: rgba(0, 0, 0, 0);" cx="208.831" cy="163.315" rx="30.542" ry="42.113" transform="matrix(-0.879614, -0.475688, -0.459302, 0.888475, 1004.264327, 200.95574)"/>
    <path style="paint-order: fill; stroke: rgba(0, 0, 0, 0);" d="M 618.503 292.165 C 612.913 301.852 611.905 319.714 646.477 341.42 C 681.505 320.055 680.497 302.193 674.907 292.506 C 669.421 282.999 650.625 284.499 646.693 292.745 C 642.58 284.142 623.959 282.71 618.503 292.165 Z M 594.354 379.675 C 580.907 378.743 573.416 379.031 560.64 362.699 C 542.482 340.133 559.55 320.62 580.246 298.86 C 590.008 287.887 592.954 276.829 601.527 265.385 C 611.173 252.913 636.641 245.929 647.708 247.523 C 659.145 247.13 682.769 253.941 691.883 265.726 C 700.456 277.17 703.402 288.228 713.164 299.201 C 733.86 320.961 750.928 340.474 732.77 363.04 C 719.994 379.372 712.503 379.084 699.056 380.016 C 688.433 380.709 664.706 369.008 645.737 366.627 C 627.12 369.441 604.619 380.345 594.354 379.675 Z"/>
    <ellipse style="stroke: rgba(0, 0, 0, 0);" cx="208.831" cy="163.315" rx="30.542" ry="42.113" transform="matrix(0.985732, -0.168325, 0.149963, 0.988867, 377.484867, 62.346573)"/>
    <ellipse style="stroke: rgba(0, 0, 0, 0);" cx="208.831" cy="163.315" rx="30.542" ry="42.113" transform="matrix(0.879614, -0.475688, 0.459302, 0.888475, 288.730882, 200.852072)"/>
  </g>
</svg>